[Header]
FileType HTR
DataType HTRS
FileVersion 1
NumSegments 22
NumFrames 6
DataFrameRate 24
EulerRotationOrder ZYX
CalibrationUnits mm
RotationUnits Degrees
GlobalAxisofGravity Y
BoneLengthAxis Y
ScaleFactor 1.0
[SegmentNames&Hierarchy]
reference	GLOBAL
Hips	reference
Spine	Hips
Spine1	Spine
Neck	Spine1
Head	Neck
LeftShoulder	Spine1
LeftArm	LeftShoulder
LeftForeArm	LeftArm
LeftHand	LeftForeArm
RightShoulder	Spine1
RightArm	RightShoulder
RightForeArm	RightArm
RightHand	RightForeArm
LeftUpLeg	Hips
LeftLeg	LeftUpLeg
LeftFoot	LeftLeg
LeftToeBase	LeftFoot
RightUpLeg	Hips
RightLeg	RightUpLeg
RightFoot	RightLeg
RightToeBase	RightFoot
[BasePosition]
reference	0	0	0	0	0	0	1
Hips	0	0	0	0	0	0	1
Spine	0	0	0	0	-0	90	1
Spine1	0	0	0	0	0	0	1
Neck	0	0	0	-7.352327771	-7.352327771	90	1
Head	0	0	0	0	-0	90	1
LeftShoulder	0	0	0	0	0	0	1
LeftArm	0	0	0	0	0	0	1
LeftForeArm	0	0	0	0	0	0	1
LeftHand	0	0	0	0	0	0	1
RightShoulder	0	0	0	0	-0	180	1
RightArm	0	0	0	0	-0	180	1
RightForeArm	0	0	0	0	-0	180	1
RightHand	0	0	0	0	-0	180	1
LeftUpLeg	0	0	0	0	-0	-90	1
LeftLeg	0	0	0	0	-0	-90	1
LeftFoot	0	0	0	66.57146043	-66.57146043	-90	1
LeftToeBase	0	0	0	0	-90	0	1
RightUpLeg	0	0	0	0	-0	-90	1
RightLeg	0	0	0	0	-0	-90	1
RightFoot	0	0	0	66.57146043	-66.57146043	-90	1
RightToeBase	0	0	0	0	-90	0	1
[reference]
39	0	0	0	0	-0	0	1.0
40	0	0	0	0	-0	0	1.0
41	0	0	0	0	-0	0	1.0
42	0	0	0	0	-0	0	1.0
43	0	0	0	0	-0	0	1.0
44	0	0	0	0	-0	0	1.0
[Hips]
39	3.376497746	8.568305969	0.8757055998	1.608752728	-145.2660217	-1.38261807	1.0
40	3.237861395	8.579787254	0.7521924376	2.748310089	-150.4942627	-2.035801888	1.0
41	3.113360643	8.584078789	0.6265181303	3.635253906	-155.225708	-1.844818711	1.0
42	2.985481739	8.524537086	0.490152657	3.962843657	-159.7702942	-1.33137536	1.0
43	2.818250179	8.366140366	0.3311108053	3.025817871	-163.5134277	-0.9563446045	1.0
44	2.683607578	8.349966049	0.139582023	2.514248848	-167.114624	1.075258493	1.0
[Spine]
39	0	0.7457100153	0	-3.99609375	3.734819651	-92.62646484	1.0
40	0	0.7457100153	0	-4.176724911	6.485007763	-92.94733429	1.0
41	0	0.7457100153	0	-4.449475765	8.561427116	-92.77578735	1.0
42	0	0.7457100153	0	-4.295505524	9.980311394	-91.7611084	1.0
43	0	0.7457100153	0	-4.346116066	10.57782841	-90.79423523	1.0
44	0	0.7457100153	0	-4.12821722	10.23348904	-88.10412598	1.0
[Spine1]
39	0	2.140589952	0	7.753202438	1.287454963	-0.06076194346	1.0
40	0	2.140589952	0	7.838641167	2.233105183	-0.6981700063	1.0
41	0	2.140589952	0	7.648908138	2.947071075	-0.8494254947	1.0
42	0	2.140589952	0	8.022992134	3.46009326	-0.8491411805	1.0
43	0	2.140589952	0	9.024643898	3.616033554	-1.60768652	1.0
44	0	2.140589952	0	10.21785355	3.530467272	-1.575206399	1.0
[Neck]
39	0	2.32246995	0	-10.37852478	0.8787589073	-89.13462067	1.0
40	0	2.32246995	0	-12.15341473	0.6102114916	-89.21554565	1.0
41	0	2.32246995	0	-13.89498329	0.6592926979	-89.83533478	1.0
42	0	2.32246995	0	-15.33414173	0.9585735798	-91.01761627	1.0
43	0	2.32246995	0	-15.70712662	1.889089346	-92.07525635	1.0
44	0	2.32246995	0	-16.78880501	3.167644739	-92.91954041	1.0
[Head]
39	0	1.409579992	0.1818799973	-5.439769745	-6.935705662	-87.20674133	1.0
40	0	1.409579992	0.1818799973	-4.848203659	-7.245140076	-87.39300537	1.0
41	0	1.409579992	0.1818799973	-4.442110538	-7.192486763	-87.45992279	1.0
42	0	1.409579992	0.1818799973	-4.595773697	-6.78554821	-87.66068268	1.0
43	0	1.409579992	0.1818799973	-5.751625061	-5.617437363	-88.73889923	1.0
44	0	1.409579992	0.1818799973	-5.474067688	-4.071761131	-90.34194946	1.0
[LeftShoulder]
39	0.3668199778	1.946700096	-0.02662999928	-14.82171059	-11.73686123	-3.666179657	1.0
40	0.3668199778	1.946700096	-0.02662999928	-14.16909027	-11.6360817	-3.430482626	1.0
41	0.3668199778	1.946700096	-0.02662999928	-13.41152287	-11.15387249	-2.878408909	1.0
42	0.3668199778	1.946700096	-0.02662999928	-12.69810104	-11.09006977	-2.855507851	1.0
43	0.3668199778	1.946700096	-0.02662999928	-12.63730907	-10.66323853	-2.857609272	1.0
44	0.3668199778	1.946700096	-0.02662999928	-12.83606529	-9.860124588	-3.714108944	1.0
[LeftArm]
39	1.140689969	0	0	34.33517075	18.52350998	-72.56121063	1.0
40	1.140689969	0	0	32.15417862	19.28301239	-71.80871582	1.0
41	1.140689969	0	0	29.25191879	19.86775398	-71.51133728	1.0
42	1.140689969	0	0	27.12790871	20.94436455	-70.86647034	1.0
43	1.140689969	0	0	25.20562744	22.45313644	-70.23672485	1.0
44	1.140689969	0	0	22.6608448	23.07843018	-69.52397156	1.0
[LeftForeArm]
39	2.749800205	0	0	-14.1753912	-14.12766933	1.450796723	1.0
40	2.749800205	0	0	-13.58062172	-14.79103374	0.7053945065	1.0
41	2.749800205	0	0	-12.47529888	-15.03342819	-0.4319614172	1.0
42	2.749800205	0	0	-11.9069128	-15.2314682	-0.9916778803	1.0
43	2.749800205	0	0	-11.2124548	-14.56539726	-1.950450301	1.0
44	2.749800205	0	0	-10.25793839	-11.94650173	-2.998883009	1.0
[LeftHand]
39	2.295179844	0	0	-13.9820137	-5.351106644	-0.2905219793	1.0
40	2.295179844	0	0	-13.42218399	-5.264383316	-1.45309031	1.0
41	2.295179844	0	0	-12.42547894	-5.360348701	-2.279435635	1.0
42	2.295179844	0	0	-11.91714859	-5.321673393	-2.630646467	1.0
43	2.295179844	0	0	-11.36330318	-5.144212246	-2.189172268	1.0
44	2.295179844	0	0	-10.54553509	-4.196731091	-0.7184777856	1.0
[RightShoulder]
39	-0.3601199985	1.946700096	-0.02662999928	-6.0687356	3.817498207	177.2329407	1.0
40	-0.3601199985	1.946700096	-0.02662999928	-5.9477911	4.304358482	177.4557648	1.0
41	-0.3601199985	1.946700096	-0.02662999928	-6.077006817	4.827430248	177.3266602	1.0
42	-0.3601199985	1.946700096	-0.02662999928	-6.673681259	5.223546982	177.0247803	1.0
43	-0.3601199985	1.946700096	-0.02662999928	-7.219334602	5.261482239	176.6354828	1.0
44	-0.3601199985	1.946700096	-0.02662999928	-8.212129593	5.282304764	176.2559204	1.0
[RightArm]
39	-1.140689969	0	0	58.11759567	-2.127966166	-96.97421265	1.0
40	-1.140689969	0	0	59.58112717	-1.325270057	-97.32524872	1.0
41	-1.140689969	0	0	60.59968567	-0.3859877288	-97.98215485	1.0
42	-1.140689969	0	0	62.31529999	0.9121946692	-98.64287567	1.0
43	-1.140689969	0	0	64.4004364	3.457707644	-98.68742371	1.0
44	-1.140689969	0	0	65.86335754	5.945134163	-97.84117126	1.0
[RightForeArm]
39	-2.749800205	0	0	-6.046128273	17.3736763	172.281311	1.0
40	-2.749800205	0	0	-6.210023403	21.38531113	169.9500122	1.0
41	-2.749800205	0	0	-5.4573493	26.41503334	168.3475342	1.0
42	-2.749800205	0	0	-4.992311954	31.40332794	166.9080658	1.0
43	-2.749800205	0	0	-3.768338919	34.94682312	167.2823181	1.0
44	-2.749800205	0	0	-0.8906027079	35.39110184	169.7914124	1.0
[RightHand]
39	-2.295179844	0	0	-5.298794746	11.14675713	175.5680237	1.0
40	-2.295179844	0	0	-4.922037125	12.63746643	174.4448395	1.0
41	-2.295179844	0	0	-3.522981644	13.94511986	173.3937073	1.0
42	-2.295179844	0	0	-2.259946346	15.49640465	172.9363251	1.0
43	-2.295179844	0	0	-0.854785502	16.68927002	172.5257874	1.0
44	-2.295179844	0	0	1.102558255	17.69480515	171.8397522	1.0
[LeftUpLeg]
39	0.9094099998	0	0	-20.53621674	-3.554665804	95.19018555	1.0
40	0.9094099998	0	0	-20.87740707	-7.241230488	95.59949493	1.0
41	0.9094099998	0	0	-20.99073982	-9.531383514	97.51042938	1.0
42	0.9094099998	0	0	-19.47738647	-9.051147461	98.5471344	1.0
43	0.9094099998	0	0	-19.2695179	-6.329809189	97.45401001	1.0
44	0.9094099998	0	0	-19.30114174	-3.037349939	98.3248291	1.0
[LeftLeg]
39	0	-4.498080254	0	53.96195221	-3.928091764	79.5014801	1.0
40	0	-4.498080254	0	40.2148056	-3.907622576	82.36722565	1.0
41	0	-4.498080254	0	25.80129433	-2.555509329	83.42340088	1.0
42	0	-4.498080254	0	12.32318878	1.056836963	85.71756744	1.0
43	0	-4.498080254	0	5.392105579	-0.9972043633	88.21478271	1.0
44	0	-4.498080254	0	5.232579231	-3.097213268	88.2900238	1.0
[LeftFoot]
39	0	-3.729400158	0	-30.9154129	107.8392715	14.80750656	1.0
40	0	-3.729400158	0	-26.7240715	103.9985504	20.05840683	1.0
41	0	-3.729400158	0	-7.255508423	102.7633972	38.7094574	1.0
42	0	-3.729400158	0	-6.091732979	98.03165436	36.39015579	1.0
43	0	-3.729400158	0	-6.887152672	95.90574646	34.29503632	1.0
44	0	-3.729400158	0	-1.58794713	94.70172119	39.00546265	1.0
[LeftToeBase]
39	0	-0.5911099911	1.364109993	0	0	0	1.0
40	0	-0.5911099911	1.364109993	0	0	0	1.0
41	0	-0.5911099911	1.364109993	0	0	0	1.0
42	0	-0.5911099911	1.364109993	0	0	0	1.0
43	0	-0.5911099911	1.364109993	0	0	0	1.0
44	0	-0.5911099911	1.364109993	0	0	0	1.0
[RightUpLeg]
39	-0.9094099998	0	0	-3.817059517	3.051058769	101.2249908	1.0
40	-0.9094099998	0	0	-0.981441021	-3.513411522	100.1304626	1.0
41	-0.9094099998	0	0	1.436538815	-10.69562149	99.819664	1.0
42	-0.9094099998	0	0	5.071411133	-15.48495102	99.51841736	1.0
43	-0.9094099998	0	0	8.485959053	-14.38467407	98.1515274	1.0
44	-0.9094099998	0	0	10.84392262	-10.89927578	97.93669891	1.0
[RightLeg]
39	0	-4.498080254	0	23.97889709	9.895132065	90.89470673	1.0
40	0	-4.498080254	0	19.25330544	7.817209244	91.32589722	1.0
41	0	-4.498080254	0	15.37854004	6.523917198	91.47610474	1.0
42	0	-4.498080254	0	11.53577423	5.628051758	90.99385834	1.0
43	0	-4.498080254	0	8.234098434	0.9255818725	90.27469635	1.0
44	0	-4.498080254	0	8.666550636	2.776807308	92.16940308	1.0
[RightFoot]
39	0	-3.729400158	0	10.28213501	65.76732635	48.43821716	1.0
40	0	-3.729400158	0	12.57352734	66.34087372	49.85253143	1.0
41	0	-3.729400158	0	14.3544178	65.82308197	52.75222015	1.0
42	0	-3.729400158	0	15.12836266	64.65228271	57.57023239	1.0
43	0	-3.729400158	0	16.16455841	66.3296814	66.25192261	1.0
44	0	-3.729400158	0	12.70616722	64.40309906	65.05665588	1.0
[RightToeBase]
39	0	-0.5911099911	1.364109993	0	0	0	1.0
40	0	-0.5911099911	1.364109993	0	0	0	1.0
41	0	-0.5911099911	1.364109993	0	0	0	1.0
42	0	-0.5911099911	1.364109993	0	0	0	1.0
43	0	-0.5911099911	1.364109993	0	0	0	1.0
44	0	-0.5911099911	1.364109993	0	0	0	1.0
[EndOfFile]
